# xmcd
#
# Track frame offsets: 
#        150
#        19807
#        34658
#        52208
#        74181
#        91954
#        111005
#        129784
#        152464
#        164253
#        181214
#
# Disc length: 2673 seconds
#
# Revision: 0
# Processed by: cddbd v1.5.2PL0 Copyright (c) Steve Scherf et al.
# Submitted via: ExactAudioCopyFreeDBPlugin 1.0
#
DISCID=8c0a6f0b
DTITLE=Seaman Dan - Sailing Home
DYEAR=1900
DGENRE=
TTITLE0=Sailing the Southeast Wind
TTITLE1=Lighthouse
TTITLE2=Mango Rain
TTITLE3=The Floria Sails Again
TTITLE4=Dock of the Bay
TTITLE5=Shimmering Blue
TTITLE6=Water
TTITLE7=Full Fathom Five
TTITLE8=Baba Waiar
TTITLE9=Mak Taim
TTITLE10=Saltwater Cowboy
EXTD=
EXTT0=
EXTT1=
EXTT2=
EXTT3=
EXTT4=
EXTT5=
EXTT6=
EXTT7=
EXTT8=
EXTT9=
EXTT10=
PLAYORDER=
